<?xml version="1.0" encoding="utf-8"?><!-- Uploaded to: SVG Repo, www.svgrepo.com, Generator: SVG Repo Mixer Tools -->
<svg fill="#000000" width="800px" height="800px" viewBox="0 0 24 24" id="link-alt-4" data-name="Line Color" xmlns="http://www.w3.org/2000/svg" class="icon line-color"><line id="secondary" x1="8" y1="12" x2="16" y2="12" style="fill: none; stroke: rgb(44, 169, 188); stroke-linecap: round; stroke-linejoin: round; stroke-width: 2;"></line><path id="primary" d="M10,9A1,1,0,0,0,9,8H7a4,4,0,0,0-4,4H3a4,4,0,0,0,4,4H9a1,1,0,0,0,1-1" style="fill: none; stroke: rgb(0, 0, 0); stroke-linecap: round; stroke-linejoin: round; stroke-width: 2;"></path><path id="primary-2" data-name="primary" d="M14,15a1,1,0,0,0,1,1h2a4,4,0,0,0,4-4h0a4,4,0,0,0-4-4H15a1,1,0,0,0-1,1" style="fill: none; stroke: rgb(0, 0, 0); stroke-linecap: round; stroke-linejoin: round; stroke-width: 2;"></path></svg>